<svg width="70" height="70" viewBox="0 0 70 70" fill="none" xmlns="http://www.w3.org/2000/svg">
<rect width="70" height="70" fill="white"/>
<circle cx="27.5714" cy="38.7858" r="3.57143" fill="#FF8D01"/>
<circle cx="40.0714" cy="38.7858" r="3.57143" fill="#FF8D01"/>
<path d="M66.5 58.5L49.6169 55.7427C46.3979 57.1067 42.3497 57.7887 37.326 57.7887C36.8031 57.7887 29.1391 57.7811 28.637 57.766C14.7119 57.3484 8.71419 51.1581 8.71419 40.2028C8.71419 29.2944 14.7119 23.1512 28.637 22.7367C29.1391 22.7218 36.8031 22.7143 37.326 22.7143C52.2995 22.7143 58.7863 28.9497 58.7863 40.2028C58.7863 44.0999 58.0059 47.4125 56.3477 50.0918L66.5 58.5ZM17.4934 40.2028C17.4934 46.809 20.6512 50.0454 28.637 50.3999C29.1309 50.4219 36.7948 50.4328 37.326 50.4328C46.4467 50.4328 50.0071 47.1689 50.0071 40.2028C50.0071 33.2853 46.4954 30.0702 37.326 30.0702C36.7946 30.0702 29.1308 30.0808 28.637 30.1022C20.6099 30.4499 17.4934 33.6403 17.4934 40.2028Z" fill="#FF8D01"/>
<path d="M63 17.3571C63 20.3158 60.5986 22.7143 57.6364 22.7143C54.6741 22.7143 52.2727 20.3158 52.2727 17.3571C52.2727 14.3985 54.6741 12 57.6364 12C60.5986 12 63 14.3985 63 17.3571Z" fill="#FF8D01"/>
<path d="M14.7273 17.3571C14.7273 20.3158 12.3259 22.7143 9.36364 22.7143C6.40138 22.7143 4 20.3158 4 17.3571C4 14.3985 6.40138 12 9.36364 12C12.3259 12 14.7273 14.3985 14.7273 17.3571Z" fill="#FF8D01"/>
<path d="M57.601 21.6436L52.2373 28.7864L47.9457 25.5707L53.3093 18.4279L57.601 21.6436Z" fill="#FF8D01"/>
<path d="M9.50632 21.6436L14.87 28.7864L19.1616 25.5707L13.7979 18.4279L9.50632 21.6436Z" fill="#FF8D01"/>
</svg>
