<svg width="351" height="75" viewBox="0 0 351 75" fill="none" xmlns="http://www.w3.org/2000/svg">
<rect width="351" height="75" fill="white"/>
<path d="M266.769 22.2014V56.3014H258V22.2014H266.769Z" fill="#FF8D01"/>
<path d="M250.894 22.2014V29.5572H234.331V56.3014H225.563V29.5572H209V22.2014H250.894Z" fill="#747474"/>
<path d="M193.172 22.2014H201.94V56.3014H190.005L166.769 30.7264V56.3014H158V22.2014H169.886L193.172 47.8251V22.2014Z" fill="#747474"/>
<path d="M151.049 29.1675H123.769V36.085H151.049V42.4178H123.769V49.3353H151.049V56.3014H115V22.2014H151.049V29.1675Z" fill="#747474"/>
<path d="M101.348 22H111.174L93.6564 56H81.6901L62.174 22H72L87.6732 48.2053L101.348 22Z" fill="#747474"/>
<path d="M58.0487 29.1675H30.7686V36.085H58.0487V42.4178H30.7686V49.3353H58.0487V56.3014H22V22.2014H58.0487V29.1675Z" fill="#747474"/>
<circle cx="296.571" cy="37.7857" r="3.57143" fill="#FF8D01"/>
<circle cx="309.071" cy="37.7857" r="3.57143" fill="#FF8D01"/>
<path d="M335.5 57.5L318.617 54.7427C315.398 56.1067 311.35 56.7887 306.326 56.7887C305.803 56.7887 298.139 56.7811 297.637 56.766C283.712 56.3484 277.714 50.1581 277.714 39.2028C277.714 28.2944 283.712 22.1512 297.637 21.7367C298.139 21.7218 305.803 21.7143 306.326 21.7143C321.299 21.7143 327.786 27.9497 327.786 39.2028C327.786 43.0999 327.006 46.4125 325.348 49.0918L335.5 57.5ZM286.493 39.2028C286.493 45.809 289.651 49.0454 297.637 49.3999C298.131 49.4219 305.795 49.4328 306.326 49.4328C315.447 49.4328 319.007 46.1689 319.007 39.2028C319.007 32.2853 315.495 29.0702 306.326 29.0702C305.795 29.0702 298.131 29.0808 297.637 29.1022C289.61 29.4499 286.493 32.6403 286.493 39.2028Z" fill="#FF8D01"/>
<path d="M332 16.3571C332 19.3158 329.599 21.7143 326.636 21.7143C323.674 21.7143 321.273 19.3158 321.273 16.3571C321.273 13.3985 323.674 11 326.636 11C329.599 11 332 13.3985 332 16.3571Z" fill="#FF8D01"/>
<path d="M283.727 16.3571C283.727 19.3158 281.326 21.7143 278.364 21.7143C275.401 21.7143 273 19.3158 273 16.3571C273 13.3985 275.401 11 278.364 11C281.326 11 283.727 13.3985 283.727 16.3571Z" fill="#FF8D01"/>
<path d="M326.601 20.6436L321.237 27.7864L316.946 24.5707L322.309 17.4279L326.601 20.6436Z" fill="#FF8D01"/>
<path d="M278.506 20.6436L283.87 27.7864L288.162 24.5707L282.798 17.4279L278.506 20.6436Z" fill="#FF8D01"/>
</svg>
